<svg id="dots-design" width="251" height="6" viewBox="0 0 251 6" xmlns="http://www.w3.org/2000/svg">
<g clip-path="url(#clip0_69_3663)">
<circle cx="5.98221" cy="5.98214" r="5.98214" transform="rotate(90 5.98221 5.98214)"/>
<circle cx="17.9471" cy="5.98214" r="5.98214" transform="rotate(90 17.9471 5.98214)"/>
<circle cx="29.9109" cy="5.98214" r="5.98214" transform="rotate(90 29.9109 5.98214)"/>
<circle cx="41.8758" cy="5.98214" r="5.98214" transform="rotate(90 41.8758 5.98214)"/>
<circle cx="53.8411" cy="5.98214" r="5.98214" transform="rotate(90 53.8411 5.98214)"/>
<circle cx="65.8059" cy="5.98214" r="5.98214" transform="rotate(90 65.8059 5.98214)"/>
<circle cx="77.7698" cy="5.98214" r="5.98214" transform="rotate(90 77.7698 5.98214)"/>
<circle cx="89.7337" cy="5.98214" r="5.98214" transform="rotate(90 89.7337 5.98214)"/>
<circle cx="101.699" cy="5.98214" r="5.98214" transform="rotate(90 101.699 5.98214)"/>
<circle cx="113.662" cy="5.98214" r="5.98214" transform="rotate(90 113.662 5.98214)"/>
<circle cx="125.627" cy="5.98214" r="5.98214" transform="rotate(90 125.627 5.98214)"/>
<circle cx="137.591" cy="5.98214" r="5.98214" transform="rotate(90 137.591 5.98214)"/>
<circle cx="149.556" cy="5.98214" r="5.98214" transform="rotate(90 149.556 5.98214)"/>
<circle cx="161.52" cy="5.98214" r="5.98214" transform="rotate(90 161.52 5.98214)"/>
<circle cx="173.484" cy="5.98214" r="5.98214" transform="rotate(90 173.484 5.98214)"/>
<circle cx="185.449" cy="5.98214" r="5.98214" transform="rotate(90 185.449 5.98214)"/>
<circle cx="197.412" cy="5.98214" r="5.98214" transform="rotate(90 197.412 5.98214)"/>
<circle cx="209.377" cy="5.98214" r="5.98214" transform="rotate(90 209.377 5.98214)"/>
<circle cx="221.341" cy="5.98214" r="5.98214" transform="rotate(90 221.341 5.98214)"/>
<circle cx="233.306" cy="5.98214" r="5.98214" transform="rotate(90 233.306 5.98214)"/>
<circle cx="245.27" cy="5.98214" r="5.98214" transform="rotate(90 245.27 5.98214)"/>
</g>
<defs>
<clipPath id="clip0_69_3663">
<rect width="251" height="6"/>
</clipPath>
</defs>
</svg>
