<svg width="309" height="303" viewBox="0 0 309 303" fill="none" xmlns="http://www.w3.org/2000/svg">
<g clip-path="url(#clip0_53_14501)">
<path d="M298.524 308.03L299.812 308.004C299.314 293.645 297.787 279.339 295.242 265.2C289.674 234.927 280.416 215.045 267.726 206.106L266.986 207.163C296.632 228.043 298.509 307.232 298.524 308.03Z" fill="#2F3139"/>
<path d="M282.433 307.721L283.721 307.695C283.693 306.265 282.888 272.558 269.659 263.241L268.92 264.298C281.615 273.239 282.427 307.377 282.433 307.721Z" fill="#2F3139"/>
<path d="M259.662 207.281C263.217 207.281 266.1 204.39 266.1 200.824C266.1 197.257 263.217 194.366 259.662 194.366C256.107 194.366 253.225 197.257 253.225 200.824C253.225 204.39 256.107 207.281 259.662 207.281Z" fill="#F58218"/>
<path d="M262.848 262.815C266.403 262.815 269.285 259.924 269.285 256.358C269.285 252.791 266.403 249.9 262.848 249.9C259.292 249.9 256.41 252.791 256.41 256.358C256.41 259.924 259.292 262.815 262.848 262.815Z" fill="#F58218"/>
<path d="M285.431 211.151C284.221 218.902 287.374 225.835 287.374 225.835C287.374 225.835 292.489 220.201 293.699 212.449C294.909 204.698 291.755 197.765 291.755 197.765C291.755 197.765 286.641 203.399 285.431 211.151Z" fill="#2F3139"/>
<path d="M264.388 229.979C271.787 232.525 279.142 230.618 279.142 230.618C279.142 230.618 274.502 224.584 267.104 222.039C259.705 219.493 252.35 221.399 252.35 221.399C252.35 221.399 256.99 227.433 264.388 229.979Z" fill="#2F3139"/>
<path d="M264.153 279.16C267.502 280.215 271.068 280.37 274.494 279.608C272.319 276.83 269.388 274.741 266.056 273.595C262.724 272.448 259.133 272.293 255.715 273.147C257.954 275.858 260.864 277.932 264.153 279.16Z" fill="#2F3139"/>
<path d="M209.279 100.861L167.775 79.2124C167.775 79.2124 153.837 63.8158 145.084 56.8613C136.331 49.9069 133.637 55.0158 133.637 55.0158L129.957 61.1675L138.849 73.5733L162.869 93.9764L205.787 110.839C206.459 111.942 207.428 112.83 208.583 113.402C209.738 113.974 211.031 114.206 212.311 114.07C213.592 113.934 214.808 113.436 215.818 112.635C216.828 111.833 217.591 110.761 218.017 109.542C218.444 108.323 218.517 107.008 218.228 105.749C217.939 104.49 217.3 103.339 216.385 102.43C215.47 101.521 214.316 100.891 213.058 100.613C211.801 100.336 210.49 100.422 209.279 100.861Z" fill="#FFB8B8"/>
<path d="M101.324 82.1375L98.867 67.0579L91.9286 65.3179C91.9286 65.3179 86.4221 63.6165 85.135 74.7427C83.8479 85.8688 84.8458 106.642 84.8458 106.642L70.7588 151.389C69.587 151.936 68.5941 152.805 67.8959 153.896C67.1976 154.987 66.8226 156.254 66.8146 157.55C66.8066 158.847 67.1658 160.119 67.8506 161.218C68.5353 162.318 69.5173 163.199 70.6822 163.761C71.8472 164.322 73.1471 164.54 74.4306 164.388C75.7141 164.237 76.9285 163.724 77.9322 162.907C78.9359 162.09 79.6877 161.005 80.1001 159.776C80.5124 158.547 80.5683 157.227 80.2613 155.967L98.7225 113.602L101.324 82.1375Z" fill="#FFB8B8"/>
<path d="M158.713 293.755L167.792 293.755L172.111 258.627L158.711 258.628L158.713 293.755Z" fill="#9F616A"/>
<path d="M156.396 290.782L174.277 290.781H174.277C177.299 290.781 180.198 291.986 182.334 294.129C184.471 296.273 185.672 299.18 185.672 302.211V302.582L156.397 302.584L156.396 290.782Z" fill="#2F3139"/>
<path d="M59.6868 293.755L68.7663 293.755L73.0852 258.627L59.6855 258.628L59.6868 293.755Z" fill="#9F616A"/>
<path d="M57.3711 290.782L75.2513 290.781H75.252C78.274 290.781 81.1722 291.986 83.309 294.129C85.4459 296.273 86.6465 299.18 86.6467 302.211V302.582L57.3716 302.584L57.3711 290.782Z" fill="#2F3139"/>
<path d="M104.507 52.0133L89.4475 64.9084L101.806 104.139L104.595 112.899C104.595 112.899 87.5674 128.647 77.032 172.639C66.4965 216.63 49.2617 275.084 49.2617 275.084L85.6414 285.53L115.239 186.017L150.052 264.088L154.071 287.18L185.052 278.016L177.744 220.104L141.204 119.858L145 93.2848C145 93.2848 150.7 80.021 140.798 65.9783L137.692 52.7831L126.566 50.0342L104.507 52.0133Z" fill="#F58218"/>
<path d="M129.525 45.0038H88.8112C87.9737 45.0029 87.1708 44.6687 86.5786 44.0747C85.9864 43.4806 85.6533 42.6752 85.6523 41.8351V24.2315C85.6523 17.9753 88.1299 11.9754 92.54 7.55161C96.9501 3.12783 102.932 0.642578 109.168 0.642578C115.405 0.642578 121.387 3.12783 125.797 7.55161C130.207 11.9754 132.684 17.9753 132.684 24.2315V41.8351C132.683 42.6752 132.35 43.4806 131.758 44.0747C131.166 44.6687 130.363 45.0029 129.525 45.0038Z" fill="#2F3139"/>
<path d="M129.13 35.5945C133.697 27.2135 130.627 16.7053 122.272 12.1239C113.916 7.54238 103.441 10.6225 98.8734 19.0035C94.3061 27.3845 97.3767 37.8927 105.732 42.4742C114.087 47.0557 124.563 43.9756 129.13 35.5945Z" fill="#FFB8B8"/>
<path d="M138.249 25.9914H113.354L113.098 22.4061L111.822 25.9914H107.988L107.483 18.8853L104.953 25.9914H97.5352V25.6394C97.5407 20.6922 99.5023 15.9492 102.99 12.451C106.477 8.95283 111.205 6.98509 116.137 6.97949H119.647C124.579 6.98508 129.307 8.95281 132.795 12.451C136.282 15.9492 138.244 20.6922 138.249 25.6394V25.9914Z" fill="#2F3139"/>
<path d="M113.15 48.2898C112.963 48.2896 112.776 48.2731 112.591 48.2403L94.3613 45.0139V14.792H114.429L113.932 15.3731C107.02 23.4597 112.227 36.5724 115.947 43.6689C116.221 44.1886 116.343 44.7754 116.299 45.3618C116.256 45.9482 116.048 46.5103 115.699 46.9833C115.408 47.3878 115.025 47.7171 114.582 47.9442C114.138 48.1714 113.648 48.2898 113.15 48.2898Z" fill="#2F3139"/>
<path d="M263.905 206.73L104.138 263.392C100.188 264.788 95.8471 264.555 92.0678 262.745C88.2885 260.934 85.3795 257.694 83.979 253.734L56.5333 175.867C55.1417 171.905 55.3738 167.55 57.1788 163.759C58.9837 159.968 62.214 157.05 66.1611 155.645L225.928 98.9834C229.878 97.5874 234.219 97.8203 237.998 99.6308C241.777 101.441 244.686 104.682 246.087 108.641L273.533 186.508C274.924 190.471 274.692 194.825 272.887 198.616C271.082 202.407 267.852 205.325 263.905 206.73Z" fill="white"/>
<path d="M273.537 186.508L273.682 186.92C275.016 190.704 274.795 194.864 273.071 198.486C271.346 202.107 268.257 204.893 264.485 206.23L103.919 263.175C100.148 264.513 96.0011 264.292 92.3914 262.563C88.7816 260.834 86.0044 257.737 84.6706 253.954L84.5254 253.542L273.537 186.508Z" fill="#F2F2F2"/>
<path d="M94.1733 173.724C83.5831 180.714 70.0105 175.454 65.2637 167.791L66.0205 167.36C75.0362 161.723 88.4252 164.864 94.1733 173.724Z" fill="#2F2E41"/>
<path d="M226.881 193.556C224.289 194.475 221.955 194.433 219.943 193.43C215.397 191.164 213.263 184.445 211.549 179.046C211.05 177.476 210.579 175.992 210.099 174.779L210.092 174.761C209.258 172.355 209.403 169.717 210.497 167.418C211.59 165.119 213.544 163.346 215.933 162.484L237.423 154.863C240.012 153.945 242.343 153.986 244.353 154.987C248.899 157.251 251.034 163.967 252.75 169.364C253.25 170.938 253.723 172.425 254.204 173.639C255.044 176.047 254.901 178.69 253.808 180.993C252.714 183.296 250.758 185.072 248.365 185.936L226.881 193.556ZM210.993 174.434C211.483 175.676 211.958 177.172 212.461 178.755C214.12 183.981 216.186 190.485 220.369 192.57C222.165 193.465 224.19 193.491 226.562 192.65L248.045 185.031C250.197 184.255 251.957 182.659 252.942 180.589C253.928 178.518 254.059 176.142 253.308 173.975C252.821 172.748 252.343 171.246 251.838 169.656C250.177 164.432 248.11 157.93 243.928 155.848C242.134 154.954 240.11 154.928 237.743 155.768L216.254 163.389C214.104 164.165 212.346 165.76 211.361 167.828C210.376 169.895 210.244 172.269 210.993 174.434Z" fill="#2F3139"/>
<path d="M89.7175 176.24C85.9412 177.553 81.8733 177.778 77.9763 176.887C72.2851 175.634 67.1202 172.225 64.4973 167.993L64.2344 167.568L65.4156 166.895C74.5669 161.177 88.2897 164.277 94.213 173.405L94.4727 173.806L94.0751 174.068C92.7156 174.967 91.2523 175.696 89.7175 176.24ZM65.5811 167.905C68.148 171.731 72.9246 174.791 78.1817 175.949C83.2919 177.147 88.6666 176.277 93.142 173.528C87.3479 165.121 74.5109 162.332 65.914 167.715L65.5811 167.905Z" fill="#2F3139"/>
<path d="M95.3295 232.129C93.9878 232.662 92.527 232.818 91.1035 232.581C89.6801 232.344 88.348 231.723 87.25 230.783C85.9648 229.657 84.9905 228.217 84.421 226.603C83.8516 224.989 83.7061 223.255 83.9986 221.568C84.2704 220.117 84.9374 218.769 85.9258 217.675C86.9142 216.58 88.1853 215.781 89.5985 215.367L118.232 205.212C119.591 204.647 121.079 204.47 122.532 204.699C123.985 204.928 125.347 205.556 126.467 206.512C127.751 207.639 128.725 209.079 129.294 210.693C129.862 212.307 130.007 214.041 129.714 215.727C129.149 218.691 127.154 220.875 124.113 221.92L95.4792 232.075C95.4292 232.093 95.3793 232.112 95.3295 232.129ZM89.7766 216.321C88.5548 216.7 87.4589 217.405 86.6066 218.361C85.7543 219.317 85.1778 220.488 84.9391 221.748C84.6755 223.268 84.8066 224.83 85.3197 226.284C85.8327 227.738 86.7105 229.035 87.8683 230.05C88.8609 230.894 90.067 231.445 91.3528 231.643C92.6387 231.841 93.9541 231.678 95.1533 231.172L123.801 221.012C125.052 220.65 126.178 219.948 127.056 218.983C127.934 218.019 128.528 216.829 128.774 215.547C129.038 214.027 128.907 212.465 128.395 211.011C127.882 209.557 127.005 208.26 125.848 207.245C124.854 206.402 123.647 205.85 122.361 205.651C121.075 205.452 119.759 205.613 118.557 206.115L89.9081 216.276C89.8641 216.291 89.82 216.306 89.7766 216.321Z" fill="#2F3139"/>
<path d="M227.073 170.645L218.047 173.846C217.448 174.058 216.79 174.024 216.217 173.749C215.645 173.475 215.204 172.983 214.992 172.383C214.781 171.783 214.816 171.123 215.089 170.548C215.363 169.973 215.853 169.531 216.451 169.319L225.477 166.118C226.076 165.906 226.734 165.94 227.307 166.215C227.88 166.489 228.32 166.981 228.532 167.581C228.743 168.181 228.709 168.841 228.435 169.416C228.162 169.991 227.672 170.433 227.073 170.645Z" fill="#2F2E41"/>
<path d="M229.626 177.889L220.6 181.09C220.001 181.303 219.343 181.268 218.77 180.993C218.197 180.719 217.757 180.227 217.545 179.627C217.333 179.027 217.368 178.367 217.642 177.792C217.915 177.217 218.405 176.775 219.004 176.563L228.03 173.362C228.629 173.15 229.287 173.185 229.86 173.459C230.432 173.733 230.873 174.225 231.085 174.825C231.296 175.426 231.261 176.086 230.988 176.66C230.714 177.235 230.224 177.677 229.626 177.889Z" fill="#2F2E41"/>
<path d="M232.179 185.131L223.152 188.333C222.856 188.438 222.542 188.483 222.228 188.466C221.914 188.45 221.607 188.371 221.323 188.235C221.039 188.1 220.785 187.909 220.575 187.675C220.365 187.44 220.203 187.166 220.098 186.869C219.993 186.572 219.948 186.257 219.964 185.942C219.981 185.627 220.059 185.319 220.195 185.034C220.33 184.75 220.52 184.495 220.754 184.284C220.987 184.073 221.26 183.91 221.557 183.805L230.583 180.604C230.879 180.499 231.193 180.453 231.507 180.47C231.821 180.487 232.129 180.565 232.412 180.701C232.696 180.837 232.95 181.028 233.16 181.262C233.37 181.496 233.533 181.77 233.637 182.067C233.742 182.365 233.788 182.68 233.771 182.995C233.754 183.309 233.676 183.618 233.541 183.902C233.405 184.187 233.215 184.442 232.981 184.653C232.748 184.864 232.475 185.026 232.179 185.131Z" fill="#2F2E41"/>
<path d="M242.866 165.043L233.84 168.245C233.543 168.35 233.229 168.395 232.915 168.379C232.602 168.362 232.294 168.283 232.01 168.148C231.727 168.012 231.473 167.821 231.262 167.587C231.052 167.352 230.89 167.079 230.785 166.781C230.681 166.484 230.635 166.169 230.652 165.854C230.668 165.539 230.747 165.231 230.882 164.946C231.018 164.662 231.208 164.407 231.441 164.196C231.675 163.985 231.948 163.823 232.244 163.717L241.27 160.516C241.869 160.304 242.527 160.339 243.1 160.613C243.673 160.888 244.113 161.379 244.325 161.979C244.536 162.58 244.502 163.24 244.228 163.815C243.955 164.389 243.465 164.831 242.866 165.043Z" fill="#2F2E41"/>
<path d="M245.419 172.288L236.392 175.489C236.096 175.594 235.782 175.639 235.468 175.623C235.154 175.606 234.847 175.528 234.563 175.392C234.28 175.256 234.025 175.065 233.815 174.831C233.605 174.596 233.443 174.323 233.338 174.026C233.233 173.728 233.188 173.413 233.205 173.098C233.221 172.783 233.299 172.475 233.435 172.19C233.57 171.906 233.76 171.651 233.994 171.44C234.228 171.229 234.5 171.067 234.797 170.962L243.823 167.76C244.12 167.655 244.434 167.61 244.747 167.626C245.061 167.643 245.369 167.722 245.652 167.857C245.936 167.993 246.19 168.184 246.4 168.418C246.611 168.653 246.773 168.926 246.878 169.224C246.982 169.521 247.028 169.836 247.011 170.151C246.995 170.466 246.916 170.774 246.781 171.059C246.645 171.343 246.455 171.598 246.222 171.809C245.988 172.02 245.715 172.182 245.419 172.288Z" fill="#2F2E41"/>
<path d="M247.974 179.531L238.947 182.732C238.349 182.944 237.691 182.909 237.118 182.635C236.545 182.36 236.104 181.869 235.893 181.269C235.681 180.668 235.716 180.008 235.99 179.434C236.263 178.859 236.753 178.417 237.351 178.205L246.378 175.004C246.674 174.898 246.988 174.853 247.302 174.87C247.616 174.886 247.924 174.965 248.207 175.101C248.491 175.237 248.745 175.427 248.955 175.661C249.165 175.896 249.328 176.17 249.432 176.467C249.537 176.764 249.582 177.079 249.566 177.394C249.549 177.709 249.471 178.017 249.336 178.302C249.2 178.586 249.01 178.841 248.776 179.052C248.543 179.263 248.27 179.426 247.974 179.531Z" fill="#2F2E41"/>
<path d="M252.065 125.591L63.0527 192.625L63.3719 193.53L252.384 126.496L252.065 125.591Z" fill="#2F3139"/>
<path d="M263.905 206.73L104.138 263.392C100.188 264.788 95.8471 264.555 92.0678 262.745C88.2885 260.934 85.3795 257.694 83.979 253.734L56.5333 175.867C55.1417 171.905 55.3738 167.55 57.1788 163.759C58.9837 159.968 62.214 157.05 66.1611 155.645L225.928 98.9834C229.878 97.5874 234.219 97.8203 237.998 99.6308C241.777 101.441 244.686 104.682 246.087 108.641L273.533 186.508C274.924 190.471 274.692 194.825 272.887 198.616C271.082 202.407 267.852 205.325 263.905 206.73ZM66.4802 156.551C62.7724 157.871 59.7378 160.612 58.0423 164.173C56.3468 167.734 56.1287 171.825 57.436 175.547L84.8816 253.414C86.1973 257.134 88.93 260.178 92.4802 261.878C96.0304 263.579 100.108 263.798 103.819 262.487L263.586 205.825C267.293 204.505 270.328 201.764 272.024 198.202C273.719 194.641 273.937 190.551 272.63 186.828L245.184 108.961C243.869 105.242 241.136 102.198 237.586 100.497C234.035 98.7962 229.958 98.5775 226.247 99.8888L66.4802 156.551Z" fill="#2F3139"/>
<path d="M308.582 302.851H0.418133C0.307237 302.851 0.200883 302.783 0.122468 302.662C0.0440528 302.541 0 302.377 0 302.205C0 302.034 0.0440528 301.87 0.122468 301.749C0.200883 301.628 0.307237 301.56 0.418133 301.56H308.582C308.693 301.56 308.799 301.628 308.878 301.749C308.956 301.87 309 302.034 309 302.205C309 302.377 308.956 302.541 308.878 302.662C308.799 302.783 308.693 302.851 308.582 302.851Z" fill="#CBCBCB"/>
</g>
<defs>
<clipPath id="clip0_53_14501">
<rect width="309" height="302.209" fill="white" transform="translate(0 0.642578)"/>
</clipPath>
</defs>
</svg>
